<svg width="175" height="60" viewBox="0 0 175 60" fill="none" xmlns="http://www.w3.org/2000/svg">
<path d="M16.344 43.336H19.896V50.152C18.984 50.84 17.928 51.368 16.728 51.736C15.528 52.104 14.32 52.288 13.104 52.288C11.36 52.288 9.792 51.92 8.4 51.184C7.008 50.432 5.912 49.4 5.112 48.088C4.328 46.76 3.936 45.264 3.936 43.6C3.936 41.936 4.328 40.448 5.112 39.136C5.912 37.808 7.016 36.776 8.424 36.04C9.832 35.288 11.416 34.912 13.176 34.912C14.648 34.912 15.984 35.16 17.184 35.656C18.384 36.152 19.392 36.872 20.208 37.816L17.712 40.12C16.512 38.856 15.064 38.224 13.368 38.224C12.296 38.224 11.344 38.448 10.512 38.896C9.68 39.344 9.032 39.976 8.568 40.792C8.104 41.608 7.872 42.544 7.872 43.6C7.872 44.64 8.104 45.568 8.568 46.384C9.032 47.2 9.672 47.84 10.488 48.304C11.32 48.752 12.264 48.976 13.32 48.976C14.44 48.976 15.448 48.736 16.344 48.256V43.336ZM34.5716 48.4H26.7716L25.2836 52H21.2996L28.7876 35.2H32.6276L40.1396 52H36.0596L34.5716 48.4ZM33.3476 45.448L30.6836 39.016L28.0196 45.448H33.3476ZM52.5866 52L49.3466 47.32H49.1546H45.7706V52H41.8826V35.2H49.1546C50.6426 35.2 51.9306 35.448 53.0186 35.944C54.1226 36.44 54.9706 37.144 55.5626 38.056C56.1546 38.968 56.4506 40.048 56.4506 41.296C56.4506 42.544 56.1466 43.624 55.5386 44.536C54.9466 45.432 54.0986 46.12 52.9946 46.6L56.7626 52H52.5866ZM52.5146 41.296C52.5146 40.352 52.2106 39.632 51.6026 39.136C50.9946 38.624 50.1066 38.368 48.9386 38.368H45.7706V44.224H48.9386C50.1066 44.224 50.9946 43.968 51.6026 43.456C52.2106 42.944 52.5146 42.224 52.5146 41.296ZM66.3279 35.2H73.9599C75.7839 35.2 77.3919 35.552 78.7839 36.256C80.1919 36.944 81.2799 37.92 82.0479 39.184C82.8319 40.448 83.2239 41.92 83.2239 43.6C83.2239 45.28 82.8319 46.752 82.0479 48.016C81.2799 49.28 80.1919 50.264 78.7839 50.968C77.3919 51.656 75.7839 52 73.9599 52H66.3279V35.2ZM73.7679 48.808C75.4479 48.808 76.7839 48.344 77.7759 47.416C78.7839 46.472 79.2879 45.2 79.2879 43.6C79.2879 42 78.7839 40.736 77.7759 39.808C76.7839 38.864 75.4479 38.392 73.7679 38.392H70.2159V48.808H73.7679ZM99.1641 48.88V52H86.1561V35.2H98.8521V38.32H90.0201V41.968H97.8201V44.992H90.0201V48.88H99.1641ZM113.322 48.4H105.522L104.034 52H100.05L107.538 35.2H111.378L118.89 52H114.81L113.322 48.4ZM112.098 45.448L109.434 39.016L106.77 45.448H112.098ZM120.633 35.2H124.521V48.832H132.945V52H120.633V35.2ZM148.125 48.88V52H135.117V35.2H147.813V38.32H138.981V41.968H146.781V44.992H138.981V48.88H148.125ZM161.923 52L158.683 47.32H158.491H155.107V52H151.219V35.2H158.491C159.979 35.2 161.267 35.448 162.355 35.944C163.459 36.44 164.307 37.144 164.899 38.056C165.491 38.968 165.787 40.048 165.787 41.296C165.787 42.544 165.483 43.624 164.875 44.536C164.283 45.432 163.435 46.12 162.331 46.6L166.099 52H161.923ZM161.851 41.296C161.851 40.352 161.547 39.632 160.939 39.136C160.331 38.624 159.443 38.368 158.275 38.368H155.107V44.224H158.275C159.443 44.224 160.331 43.968 160.939 43.456C161.547 42.944 161.851 42.224 161.851 41.296Z" fill="#888585"/>
<path d="M61.5355 6.89105C63.1525 17.2258 75.6094 21.8831 91.6488 23.953C122.735 27.9597 167.284 22.2083 172.602 29.0982C167.284 20.922 148.438 19.2883 127.665 18.586H127.573C99.57 17.6324 68.0827 18.3421 61.5355 6.89105Z" fill="#888585"/>
<path d="M0.112274 16.9597C27.1953 24.6923 50.7022 1.32453 91.3793 5.13168C101.601 6.0927 134.134 18.8448 134.134 18.8448C126.14 13.3448 98.1041 2.90654 91.5174 2.01943C85.6012 1.21365 62.7121 -2.67482 35.4648 6.27752C35.4582 6.27752 35.4582 6.27752 35.4516 6.27752C33.0917 7.06113 30.6989 7.92605 28.2799 8.90925C10.7943 15.9913 0.112274 16.9597 0.112274 16.9597Z" fill="#888585"/>
<path d="M0.112274 16.9597C10.722 30.4214 36.3391 25.0397 57.9463 24.0934C64.6776 23.7903 71.0211 23.9234 76.3982 25.1875C56.9274 15.0302 35.8395 18.1646 20.3128 19.5175H20.3062C11.1493 20.3085 3.92493 20.4933 0.112274 16.9597Z" fill="#888585"/>
<path d="M154.821 28.8321C156.556 34.199 162.643 34.2064 167.58 34.1029C170.61 34.0438 173.22 33.9329 174.12 35.0048C172.931 29.8522 165.706 28.529 160.349 28.4329C157.785 28.3811 155.655 28.6103 154.821 28.8321Z" fill="#888585"/>
<path d="M61.5354 6.89105C63.1525 17.2258 75.6094 21.8831 91.6488 23.953C104.257 24.6109 109.049 18.0833 127.573 18.586C99.57 17.6324 68.0827 18.3421 61.5354 6.89105Z" fill="#888585"/>
<path d="M35.4713 6.27749C52.6743 3.24656 67.6488 0.570466 91.3859 5.13165C101.608 6.09268 134.14 18.8448 134.14 18.8448C126.147 13.3447 98.1106 2.90651 91.524 2.01941C85.6078 1.21362 62.7187 -2.68224 35.4713 6.27749Z" fill="#888585"/>
<path d="M20.3128 19.5175C33.2298 19.2514 37.0293 24.5148 57.9463 24.0861C57.9463 24.0861 57.9463 24.0861 57.9463 24.0935C64.6776 23.7904 71.0211 23.9234 76.3982 25.1876C56.9274 15.0302 35.8395 18.1647 20.3128 19.5175Z" fill="#888585"/>
<path d="M16.2109 28.3367C5.08844 26.8139 0.348917 21.4987 0.348917 21.4987C-1.01838 27.8193 1.11145 32.8905 16.2109 28.3367Z" fill="#888585"/>
</svg>
