<svg width="28" height="38" viewBox="0 0 28 38" fill="none" xmlns="http://www.w3.org/2000/svg">
<path d="M14 18.9736C12.1666 18.9736 10.6666 17.2867 10.6666 15.225C10.6666 13.1632 12.1666 11.4763 14 11.4763C15.8333 11.4763 17.3333 13.1632 17.3333 15.225C17.3333 17.2867 15.8333 18.9736 14 18.9736ZM24 15.5998C24 8.79607 19.5833 3.97909 14 3.97909C8.41663 3.97909 3.99996 8.79607 3.99996 15.5998C3.99996 19.9857 7.24996 25.7961 14 32.731C20.75 25.7961 24 19.9857 24 15.5998ZM14 0.230469C21 0.230469 27.3333 6.26575 27.3333 15.5998C27.3333 21.8225 22.8833 29.1886 14 37.7167C5.11663 29.1886 0.666626 21.8225 0.666626 15.5998C0.666626 6.26575 6.99996 0.230469 14 0.230469Z" fill="#888585"/>
</svg>
